<svg width="43" height="42" viewBox="0 0 43 42" fill="none" xmlns="http://www.w3.org/2000/svg">
<path d="M42.5 21C42.5 32.598 33.098 42 21.5 42C9.90202 42 0.5 32.598 0.5 21C0.5 9.40202 9.90202 0 21.5 0C33.098 0 42.5 9.40202 42.5 21Z" fill="white"/>
<path d="M18.896 31H22.896V22.99H26.5L26.896 19.01H22.896V17C22.896 16.7348 23.0014 16.4804 23.1889 16.2929C23.3764 16.1054 23.6308 16 23.896 16H26.896V12H23.896C22.5699 12 21.2981 12.5268 20.3605 13.4645C19.4228 14.4021 18.896 15.6739 18.896 17V19.01H16.896L16.5 22.99H18.896V31Z" fill="black"/>
</svg>
