<svg width="43" height="42" viewBox="0 0 43 42" fill="none" xmlns="http://www.w3.org/2000/svg">
<path d="M42.5 21C42.5 32.598 33.098 42 21.5 42C9.90202 42 0.5 32.598 0.5 21C0.5 9.40202 9.90202 0 21.5 0C33.098 0 42.5 9.40202 42.5 21Z" fill="white"/>
<path d="M17.3 11H25.7C28.9 11 31.5 13.6 31.5 16.8V25.2C31.5 26.7383 30.8889 28.2135 29.8012 29.3012C28.7135 30.3889 27.2383 31 25.7 31H17.3C14.1 31 11.5 28.4 11.5 25.2V16.8C11.5 15.2617 12.1111 13.7865 13.1988 12.6988C14.2865 11.6111 15.7617 11 17.3 11ZM17.1 13C16.1452 13 15.2295 13.3793 14.5544 14.0544C13.8793 14.7295 13.5 15.6452 13.5 16.6V25.4C13.5 27.39 15.11 29 17.1 29H25.9C26.8548 29 27.7705 28.6207 28.4456 27.9456C29.1207 27.2705 29.5 26.3548 29.5 25.4V16.6C29.5 14.61 27.89 13 25.9 13H17.1ZM26.75 14.5C27.0815 14.5 27.3995 14.6317 27.6339 14.8661C27.8683 15.1005 28 15.4185 28 15.75C28 16.0815 27.8683 16.3995 27.6339 16.6339C27.3995 16.8683 27.0815 17 26.75 17C26.4185 17 26.1005 16.8683 25.8661 16.6339C25.6317 16.3995 25.5 16.0815 25.5 15.75C25.5 15.4185 25.6317 15.1005 25.8661 14.8661C26.1005 14.6317 26.4185 14.5 26.75 14.5ZM21.5 16C22.8261 16 24.0979 16.5268 25.0355 17.4645C25.9732 18.4021 26.5 19.6739 26.5 21C26.5 22.3261 25.9732 23.5979 25.0355 24.5355C24.0979 25.4732 22.8261 26 21.5 26C20.1739 26 18.9021 25.4732 17.9645 24.5355C17.0268 23.5979 16.5 22.3261 16.5 21C16.5 19.6739 17.0268 18.4021 17.9645 17.4645C18.9021 16.5268 20.1739 16 21.5 16ZM21.5 18C20.7044 18 19.9413 18.3161 19.3787 18.8787C18.8161 19.4413 18.5 20.2044 18.5 21C18.5 21.7956 18.8161 22.5587 19.3787 23.1213C19.9413 23.6839 20.7044 24 21.5 24C22.2956 24 23.0587 23.6839 23.6213 23.1213C24.1839 22.5587 24.5 21.7956 24.5 21C24.5 20.2044 24.1839 19.4413 23.6213 18.8787C23.0587 18.3161 22.2956 18 21.5 18Z" fill="black"/>
</svg>
