<svg width="43" height="42" viewBox="0 0 43 42" fill="none" xmlns="http://www.w3.org/2000/svg">
<path d="M42.5 21C42.5 32.598 33.098 42 21.5 42C9.90202 42 0.5 32.598 0.5 21C0.5 9.40202 9.90202 0 21.5 0C33.098 0 42.5 9.40202 42.5 21Z" fill="white"/>
<path d="M32.42 15C31.65 15.35 30.82 15.58 29.96 15.69C30.84 15.16 31.52 14.32 31.84 13.31C31.01 13.81 30.09 14.16 29.12 14.36C28.33 13.5 27.22 13 25.96 13C23.61 13 21.69 14.92 21.69 17.29C21.69 17.63 21.73 17.96 21.8 18.27C18.24 18.09 15.07 16.38 12.96 13.79C12.59 14.42 12.38 15.16 12.38 15.94C12.38 17.43 13.13 18.75 14.29 19.5C13.58 19.5 12.92 19.3 12.34 19V19.03C12.34 21.11 13.82 22.85 15.78 23.24C15.1507 23.4122 14.4901 23.4362 13.85 23.31C14.1216 24.1625 14.6535 24.9084 15.371 25.4429C16.0885 25.9775 16.9554 26.2737 17.85 26.29C16.3336 27.4904 14.454 28.1393 12.52 28.13C12.18 28.13 11.84 28.11 11.5 28.07C13.4 29.29 15.66 30 18.08 30C25.96 30 30.29 23.46 30.29 17.79C30.29 17.6 30.29 17.42 30.28 17.23C31.12 16.63 31.84 15.87 32.42 15Z" fill="black"/>
</svg>
